<svg transform="scale(1)" version="1.1" id="_x30_472_x5F_Investing_2" xmlns="http://www.w3.org/2000/svg" xmlns:xlink="http://www.w3.org/1999/xlink" x="0px" y="0px" viewBox="0 0 500 500" xml:space="preserve" class="show_show__wrapper__graphic__5Waiy "><title>React</title><style type="text/css">
	.st0{fill:#198754;}
	.st1{fill:#1d4b36;}
	.st2{fill:#FFFFFF;}
	.st3{fill:none;}
</style><g id="coin"><path class="st0" d="M419.3,337.7c-8.3-4.1-22.3-6.8-38.1-6.8c-15.9,0-29.8,2.7-38.1,6.8h-8v8.9c0,8.7,20.7,15.7,46.2,15.7
		s46.2-7,46.2-15.7v-8.9H419.3z"></path><path class="st1" d="M381.2,362.7c-26.2,0-46.7-7.1-46.7-16.2v-8.8c0-0.3,0.2-0.6,0.6-0.6h7.9c8.7-4.3,23-6.8,38.3-6.8
		c15.3,0,29.6,2.6,38.3,6.8h7.9c0.3,0,0.6,0.2,0.6,0.6v8.9C428,355.6,407.4,362.7,381.2,362.7z M335.6,338.2v8.3
		c0,8.3,20.5,15.1,45.6,15.1c25.2,0,45.6-6.8,45.6-15.1v-8.3h-7.5c-0.1,0-0.2,0-0.2-0.1c-8.6-4.2-22.7-6.8-37.9-6.8
		s-29.3,2.5-37.9,6.8c-0.1,0-0.2,0.1-0.3,0.1H335.6z"></path><ellipse class="st2" cx="381.2" cy="337.7" rx="46.2" ry="15.7"></ellipse><path class="st1" d="M381.2,353.9c-26.2,0-46.7-7.1-46.7-16.2s20.5-16.2,46.7-16.2c26.2,0,46.7,7.1,46.7,16.2
		S407.4,353.9,381.2,353.9z M381.2,322.6c-25.2,0-45.6,6.8-45.6,15.1s20.5,15.1,45.6,15.1c25.2,0,45.6-6.8,45.6-15.1
		S406.4,322.6,381.2,322.6L381.2,322.6z"></path><path class="st1" d="M425.7,351.1c-0.3,0-0.6-0.2-0.6-0.6v-8.4c0-0.3,0.2-0.6,0.6-0.6s0.6,0.2,0.6,0.6v8.4
		C426.3,350.9,426,351.1,425.7,351.1z"></path><path class="st1" d="M423.8,352.9c-0.3,0-0.6-0.2-0.6-0.6V344c0-0.3,0.2-0.6,0.6-0.6s0.6,0.2,0.6,0.6v8.3
		C424.3,352.7,424.1,352.9,423.8,352.9z"></path><path class="st1" d="M421.9,354.1c-0.3,0-0.6-0.2-0.6-0.6v-8.3c0-0.3,0.2-0.6,0.6-0.6s0.6,0.2,0.6,0.6v8.3
		C422.4,353.9,422.2,354.1,421.9,354.1z"></path><path class="st1" d="M419.5,355.7c-0.3,0-0.6-0.2-0.6-0.6v-8.6c0-0.3,0.2-0.6,0.6-0.6s0.6,0.2,0.6,0.6v8.6
		C420.1,355.5,419.8,355.7,419.5,355.7z"></path><path class="st1" d="M416.3,356.9c-0.3,0-0.6-0.2-0.6-0.6v-8.2c0-0.3,0.2-0.6,0.6-0.6s0.6,0.2,0.6,0.6v8.2
		C416.9,356.6,416.6,356.9,416.3,356.9z"></path><path class="st1" d="M411.7,358.6c-0.3,0-0.6-0.2-0.6-0.6v-8.5c0-0.3,0.2-0.6,0.6-0.6s0.6,0.2,0.6,0.6v8.5
		C412.3,358.4,412.1,358.6,411.7,358.6z"></path><ellipse class="st2" cx="381.2" cy="337.7" rx="40.5" ry="12.2"></ellipse><path class="st1" d="M381.2,350.4c-23,0-41-5.5-41-12.7s18-12.7,41-12.7c23,0,41,5.5,41,12.7S404.3,350.4,381.2,350.4z M381.2,326
		c-21.7,0-39.9,5.3-39.9,11.6s18.3,11.6,39.9,11.6c21.6,0,39.9-5.3,39.9-11.6S402.9,326,381.2,326z"></path><path class="st0" d="M386,339.6c-0.1-0.9-1.3-1.8-2.5-2.6l-0.6-0.4l6.2-2.1c0.7,0.4,1.3,1,1.7,1.8c0.3,0.6,1.6,1.2,3.5,1.3
		c1.7,0.1,3.4-0.4,3.1-1.1c-0.8-1.6-2.2-2.9-3.8-3.5l2.7-0.9c1.4-0.5-1.1-1.4-2.5-0.9l-2.6,0.9c-0.8-0.3-1.6-0.5-2.5-0.6
		c-5.1-1.1-11.7-0.8-13.8,1c-1.6,1.4-0.3,3,1.6,4.6l-6.3,2.1c-1.1-0.5-1.9-1.4-2.4-2.5c-0.4-1.5-7.1-1.8-6.7-0.3s1.8,3,4.6,4.2
		l-1.6,0.6c-1.4,0.5,1.1,1.4,2.5,0.9l1.7-0.5l0.6,0.2c4.5,1.3,10.5,1.5,14.3,0.4C385.2,341.4,386.2,340.6,386,339.6z M381.2,334.7
		c-0.3-0.3-0.3-0.8,0-1.1c0.4-0.3,0.9-0.4,1.4-0.5c1.4-0.1,2.9,0,4.2,0.3l-5.3,1.8C381.4,335,381.3,334.9,381.2,334.7L381.2,334.7z
		 M376,340.4c-1.1,0-2.1-0.2-3.2-0.4l5.4-1.8c0.4,0.2,0.7,0.5,0.9,0.8c0.2,0.2,0.2,0.2,0.2,0.4c0,0.1-0.1,0.2-0.1,0.3
		C378.3,340.2,377.1,340.5,376,340.4L376,340.4z"></path><path class="st0" d="M419.3,323.1c-8.3-4.1-22.3-6.8-38.1-6.8c-15.9,0-29.8,2.7-38.1,6.8h-8v8.9c0,8.6,20.7,15.7,46.2,15.7
		s46.2-7,46.2-15.7v-8.9H419.3z"></path><path class="st1" d="M381.2,348.1c-26.2,0-46.7-7.1-46.7-16.2v-8.9c0-0.3,0.2-0.6,0.6-0.6h7.9c8.7-4.3,23-6.8,38.3-6.8
		c15.3,0,29.6,2.6,38.3,6.8h7.9c0.3,0,0.6,0.2,0.6,0.6v8.9C428,341,407.4,348.1,381.2,348.1z M335.6,323.7v8.3
		c0,8.3,20.5,15.1,45.6,15.1c25.2,0,45.6-6.8,45.6-15.1v-8.3h-7.5c-0.1,0-0.2,0-0.2-0.1c-8.6-4.2-22.7-6.8-37.9-6.8
		s-29.3,2.5-37.9,6.8c-0.1,0-0.2,0.1-0.3,0.1H335.6z"></path><ellipse class="st2" cx="381.2" cy="323.1" rx="46.2" ry="15.7"></ellipse><path class="st1" d="M381.2,339.3c-26.2,0-46.7-7.1-46.7-16.2c0-9.1,20.5-16.2,46.7-16.2c26.2,0,46.7,7.1,46.7,16.2
		C428,332.2,407.4,339.3,381.2,339.3z M381.2,308c-25.2,0-45.6,6.8-45.6,15.1s20.5,15.1,45.6,15.1c25.1,0,45.6-6.8,45.6-15.1
		C426.9,314.8,406.4,308,381.2,308z"></path><path class="st1" d="M425.7,336.5c-0.3,0-0.6-0.2-0.6-0.6v-8.3c0-0.3,0.2-0.6,0.6-0.6s0.6,0.2,0.6,0.6v8.4
		C426.2,336.3,426,336.5,425.7,336.5z"></path><path class="st1" d="M423.8,338.4c-0.3,0-0.6-0.2-0.6-0.6v-8.3c0-0.3,0.2-0.6,0.6-0.6s0.6,0.2,0.6,0.6v8.3
		C424.3,338.1,424.1,338.4,423.8,338.4z"></path><path class="st1" d="M421.9,339.6c-0.3,0-0.6-0.2-0.6-0.6v-8.3c0-0.3,0.2-0.6,0.6-0.6s0.6,0.2,0.6,0.6v8.3
		C422.4,339.4,422.2,339.6,421.9,339.6z"></path><path class="st1" d="M419.5,341.2c-0.3,0-0.6-0.2-0.6-0.6V332c0-0.3,0.2-0.6,0.6-0.6s0.6,0.2,0.6,0.6v8.6
		C420.1,340.9,419.8,341.2,419.5,341.2z"></path><path class="st1" d="M416.3,342.3c-0.3,0-0.6-0.2-0.6-0.6v-8.2c0-0.3,0.2-0.6,0.6-0.6c0.3,0,0.5,0.3,0.6,0.6v8.2
		C416.9,342.1,416.6,342.3,416.3,342.3z"></path><path class="st1" d="M411.7,344.1c-0.3,0-0.6-0.2-0.6-0.6V335c0-0.3,0.2-0.6,0.6-0.6s0.6,0.2,0.6,0.6v8.5
		C412.3,343.8,412.1,344.1,411.7,344.1z"></path><ellipse class="st2" cx="381.2" cy="323.1" rx="40.5" ry="12.2"></ellipse><path class="st1" d="M381.2,335.8c-23,0-41-5.5-41-12.7s18-12.7,41-12.7c23,0,41,5.5,41,12.7S404.3,335.8,381.2,335.8z
		 M381.2,311.5c-21.7,0-39.9,5.3-39.9,11.6s18.3,11.6,39.9,11.6c21.6,0,39.9-5.3,39.9-11.6S402.9,311.5,381.2,311.5L381.2,311.5z"></path><path class="st0" d="M386,325.1c-0.1-0.9-1.3-1.8-2.5-2.6c-0.2-0.1-0.4-0.3-0.6-0.4l6.2-2.1c0.7,0.4,1.3,1,1.7,1.8
		c0.3,0.6,1.6,1.2,3.5,1.3c1.7,0.1,3.4-0.4,3.1-1.1c-0.8-1.6-2.2-2.9-3.8-3.5l2.7-0.9c1.4-0.5-1.1-1.4-2.5-0.9l-2.6,0.9
		c-0.8-0.3-1.6-0.5-2.5-0.6c-5.1-1-11.7-0.8-13.8,1c-1.6,1.4-0.3,3,1.6,4.6l-6.3,2.1c-1.1-0.5-1.9-1.4-2.4-2.5
		c-0.4-1.5-7.1-1.8-6.7-0.3s1.8,3,4.6,4.2l-1.6,0.5c-1.4,0.5,1.1,1.4,2.5,0.9l1.7-0.6l0.6,0.2c4.5,1.3,10.5,1.5,14.3,0.4
		C385.2,326.9,386.2,326,386,325.1z M381.2,320.1c-0.2-0.4-0.3-0.8,0-1.1c0.4-0.3,0.9-0.4,1.4-0.5c1.4-0.1,2.9,0,4.2,0.3l-5.3,1.8
		C381.4,320.5,381.3,320.3,381.2,320.1L381.2,320.1z M376,325.8c-1.1,0-2.1-0.2-3.2-0.4l5.4-1.8c0.3,0.2,0.7,0.5,0.9,0.8
		c0.2,0.2,0.2,0.2,0.2,0.4c0,0.1-0.1,0.2-0.1,0.3C378.3,325.7,377.1,325.9,376,325.8L376,325.8z"></path><path class="st0" d="M414.2,309.2c-8.3-4.1-22.3-6.8-38.1-6.8c-15.9,0-29.8,2.7-38.1,6.8h-8v8.9c0,8.6,20.7,15.7,46.2,15.7
		c25.5,0,46.2-7,46.2-15.7v-8.9H414.2z"></path><path class="st1" d="M376.1,334.3c-26.2,0-46.7-7.1-46.7-16.2v-8.9c0-0.3,0.3-0.5,0.6-0.6h7.9c8.7-4.3,23-6.8,38.3-6.8
		s29.6,2.6,38.3,6.8h7.9c0.3,0,0.6,0.2,0.6,0.6v8.9C422.8,327.1,402.3,334.3,376.1,334.3z M330.4,309.8v8.3
		c0,8.3,20.5,15.1,45.6,15.1s45.6-6.8,45.6-15.1v-8.3h-7.5c-0.1,0-0.2,0-0.2-0.1c-8.6-4.2-22.7-6.8-37.9-6.8s-29.3,2.5-37.9,6.8
		c-0.1,0-0.2,0.1-0.2,0.1H330.4z"></path><ellipse class="st2" cx="376.1" cy="309.2" rx="46.2" ry="15.7"></ellipse><path class="st1" d="M376.1,325.5c-26.2,0-46.7-7.1-46.7-16.2c0-9.1,20.6-16.2,46.7-16.2s46.7,7.1,46.7,16.2
		S402.3,325.5,376.1,325.5z M376.1,294.2c-25.2,0-45.6,6.8-45.6,15.1c0,8.3,20.5,15.1,45.6,15.1s45.6-6.8,45.6-15.1
		C421.7,300.9,401.3,294.1,376.1,294.2L376.1,294.2z"></path><path class="st1" d="M420.6,322.7c-0.3,0-0.6-0.2-0.6-0.6v-8.4c0-0.3,0.2-0.6,0.6-0.6c0.3,0,0.5,0.3,0.6,0.6v8.4
		C421.1,322.4,420.9,322.7,420.6,322.7z"></path><path class="st1" d="M418.6,324.5c-0.3,0-0.5-0.3-0.6-0.6v-8.3c0-0.3,0.2-0.6,0.6-0.6s0.6,0.2,0.6,0.6v8.3
		C419.2,324.2,419,324.5,418.6,324.5z"></path><path class="st1" d="M416.7,325.7c-0.3,0-0.6-0.2-0.6-0.6v-8.3c0-0.3,0.2-0.6,0.6-0.6s0.6,0.2,0.6,0.6v8.3
		C417.3,325.5,417,325.7,416.7,325.7z"></path><path class="st1" d="M414.4,327.3c-0.3,0-0.6-0.2-0.6-0.6v-8.6c0-0.3,0.2-0.6,0.6-0.6s0.6,0.2,0.6,0.6v8.6
		C414.9,327,414.7,327.3,414.4,327.3z"></path><path class="st1" d="M411.2,328.5c-0.3,0-0.6-0.2-0.6-0.6v-8.2c0-0.3,0.2-0.6,0.6-0.6s0.6,0.2,0.6,0.6v8.2
		C411.8,328.2,411.5,328.5,411.2,328.5z"></path><path class="st1" d="M406.6,330.2c-0.3,0-0.6-0.2-0.6-0.6v-8.5c0-0.3,0.2-0.6,0.6-0.6s0.6,0.2,0.6,0.6v8.5
		C407.2,329.9,406.9,330.2,406.6,330.2z"></path><ellipse class="st2" cx="376.1" cy="309.2" rx="40.5" ry="12.2"></ellipse><path class="st1" d="M376.1,322c-23,0-41-5.5-41-12.7s18-12.7,41-12.7s41,5.5,41,12.7S399.1,322,376.1,322z M376.1,297.6
		c-21.7,0-39.9,5.3-39.9,11.6s18.3,11.6,39.9,11.6c21.6,0,39.9-5.3,39.9-11.6S397.7,297.6,376.1,297.6z"></path><path class="st0" d="M380.9,311.2c-0.1-0.9-1.3-1.8-2.5-2.6c-0.2-0.1-0.4-0.3-0.6-0.4l6.2-2.1c0.7,0.4,1.3,1,1.7,1.8
		c0.3,0.6,1.7,1.2,3.5,1.3c1.7,0.1,3.4-0.4,3.1-1.1c-0.8-1.6-2.2-2.9-3.8-3.5l2.7-0.9c1.4-0.5-1.1-1.4-2.5-0.9l-2.6,0.9
		c-0.7-0.2-1.6-0.4-2.5-0.6c-5.1-1-11.7-0.8-13.8,1c-1.6,1.4-0.3,3,1.6,4.6l-6.3,2.1c-1.1-0.5-1.9-1.4-2.4-2.5
		c-0.4-1.5-7.1-1.8-6.7-0.3s1.8,3,4.6,4.2l-1.6,0.5c-1.4,0.5,1.1,1.4,2.5,0.9l1.6-0.6l0.6,0.2c4.6,1.3,10.5,1.5,14.3,0.4
		C380.1,313,381.1,312.1,380.9,311.2z M376,306.3c-0.2-0.4-0.3-0.8,0-1.1c0.4-0.3,0.9-0.5,1.3-0.5c1.4-0.1,2.9,0,4.2,0.3l-5.3,1.8
		C376.3,306.6,376.1,306.4,376,306.3L376,306.3z M370.8,311.9c-1.1,0-2.1-0.2-3.2-0.4l5.4-1.8c0.3,0.2,0.7,0.5,0.9,0.8
		c0.2,0.2,0.2,0.2,0.2,0.4c0,0.1-0.1,0.2-0.1,0.3C373.1,311.8,372,312.1,370.8,311.9z"></path><path class="st0" d="M421.7,294c-8.3-4.1-22.3-6.8-38.1-6.8c-15.9,0-29.8,2.8-38.1,6.8h-8v8.9c0,8.6,20.7,15.7,46.2,15.7
		c25.5,0,46.2-7,46.2-15.7V294H421.7z"></path><path class="st1" d="M383.6,319.1c-26.2,0-46.7-7.1-46.7-16.2V294c0-0.3,0.3-0.5,0.6-0.6h7.9c8.7-4.3,23-6.8,38.3-6.8
		s29.6,2.6,38.3,6.8h7.9c0.3,0,0.6,0.2,0.6,0.6v8.9C430.3,311.9,409.8,319.1,383.6,319.1z M338,294.6v8.3c0,8.3,20.5,15.1,45.6,15.1
		s45.6-6.8,45.6-15.1v-8.3h-7.5c-0.1,0-0.2,0-0.2-0.1c-8.6-4.2-22.7-6.8-37.9-6.8s-29.3,2.5-37.9,6.8c-0.1,0-0.2,0.1-0.2,0.1H338z"></path><ellipse class="st2" cx="383.6" cy="294" rx="46.2" ry="15.7"></ellipse><path class="st1" d="M383.6,310.2c-26.2,0-46.7-7.1-46.7-16.2c0-9.1,20.5-16.2,46.7-16.2c26.2,0,46.7,7.1,46.7,16.2
		C430.3,303.1,409.8,310.2,383.6,310.2z M383.6,278.9c-25.2,0-45.6,6.8-45.6,15.1s20.5,15.1,45.6,15.1s45.6-6.8,45.6-15.1
		C429.2,285.7,408.8,278.9,383.6,278.9z"></path><path class="st1" d="M428.1,307.5c-0.3,0-0.6-0.2-0.6-0.6v-8.4c0-0.3,0.2-0.6,0.6-0.6c0.3,0,0.5,0.3,0.6,0.6v8.4
		C428.6,307.2,428.4,307.5,428.1,307.5z"></path><path class="st1" d="M426.1,309.3c-0.3,0-0.6-0.2-0.6-0.6v-8.3c0-0.3,0.3-0.5,0.6-0.6c0.3,0,0.6,0.2,0.6,0.6v8.3
		C426.7,309,426.4,309.3,426.1,309.3z"></path><path class="st1" d="M424.2,310.5c-0.3,0-0.6-0.2-0.6-0.6v-8.3c0-0.3,0.2-0.6,0.6-0.6s0.6,0.2,0.6,0.6v8.3
		C424.8,310.3,424.5,310.5,424.2,310.5z"></path><path class="st1" d="M421.9,312.1c-0.3,0-0.5-0.3-0.6-0.6V303c0-0.3,0.2-0.6,0.6-0.6s0.6,0.2,0.6,0.6v8.6
		C422.4,311.9,422.2,312.1,421.9,312.1z"></path><path class="st1" d="M418.7,313.3c-0.3,0-0.6-0.2-0.6-0.6v-8.2c0-0.3,0.2-0.6,0.6-0.6s0.6,0.2,0.6,0.6v8.2
		C419.3,313,419,313.3,418.7,313.3z"></path><path class="st1" d="M414.1,315c-0.3,0-0.6-0.2-0.6-0.6v-8.5c0-0.3,0.2-0.6,0.6-0.6s0.6,0.2,0.6,0.6v8.5
		C414.7,314.8,414.4,315,414.1,315z"></path><ellipse class="st2" cx="383.6" cy="294" rx="40.5" ry="12.2"></ellipse><path class="st1" d="M383.6,306.8c-23,0-41-5.5-41-12.7c0-7.2,18-12.7,41-12.7s41,5.5,41,12.7C424.6,301.2,406.6,306.8,383.6,306.8
		z M383.6,282.4c-21.7,0-39.9,5.3-39.9,11.6c0,6.3,18.3,11.6,39.9,11.6c21.6,0,39.9-5.3,39.9-11.6
		C423.5,287.7,405.2,282.4,383.6,282.4z"></path><path class="st0" d="M388.4,296c-0.1-0.9-1.3-1.8-2.5-2.6c-0.2-0.1-0.4-0.3-0.6-0.4l6.2-2.1c0.7,0.4,1.3,1,1.7,1.8
		c0.3,0.6,1.7,1.2,3.5,1.3c1.7,0.1,3.4-0.4,3.1-1c-0.8-1.6-2.2-2.9-3.9-3.5l2.7-0.9c1.4-0.5-1.1-1.4-2.5-0.9l-2.6,0.9
		c-0.7-0.2-1.6-0.4-2.5-0.6c-5.1-1-11.7-0.8-13.8,1c-1.6,1.4-0.3,3,1.6,4.6l-6.3,2.1c-1.1-0.5-1.9-1.4-2.4-2.5
		c-0.4-1.5-7.1-1.8-6.7-0.3c0.5,1.5,1.8,3,4.6,4.2l-1.6,0.5c-1.4,0.5,1.1,1.4,2.5,0.9l1.6-0.6l0.6,0.2c4.6,1.3,10.5,1.5,14.3,0.4
		C387.6,297.8,388.6,296.9,388.4,296z M383.5,291.1c-0.2-0.4-0.3-0.8,0-1.1c0.4-0.3,0.9-0.5,1.3-0.5c1.4-0.1,2.9,0,4.2,0.3l-5.2,1.8
		C383.7,291.4,383.6,291.3,383.5,291.1L383.5,291.1z M378.3,296.7c-1.1,0-2.1-0.2-3.2-0.4l5.4-1.8c0.3,0.2,0.7,0.5,0.9,0.8
		c0.2,0.2,0.2,0.2,0.2,0.4c0,0.1-0.1,0.2-0.1,0.3C380.6,296.6,379.5,296.9,378.3,296.7L378.3,296.7z"></path><path class="st0" d="M419.3,279.5c-8.3-4.1-22.3-6.8-38.1-6.8c-15.9,0-29.8,2.7-38.1,6.8h-8v8.8c0,8.6,20.7,15.7,46.2,15.7
		s46.2-7,46.2-15.7v-8.8H419.3z"></path><path class="st1" d="M381.2,304.5c-26.2,0-46.7-7.1-46.7-16.2v-8.8c0-0.3,0.2-0.6,0.6-0.6h7.9c8.7-4.3,23-6.8,38.3-6.8
		c15.3,0,29.6,2.6,38.3,6.8h7.9c0.3,0,0.6,0.2,0.6,0.6v8.8C428,297.4,407.4,304.5,381.2,304.5z M335.6,280.1v8.3
		c0,8.3,20.5,15.1,45.6,15.1c25.2,0,45.6-6.8,45.6-15.1v-8.3h-7.5c-0.1,0-0.2,0-0.2-0.1c-8.6-4.2-22.7-6.8-37.9-6.8
		s-29.3,2.5-37.9,6.8c-0.1,0-0.2,0.1-0.3,0.1H335.6z"></path><ellipse class="st2" cx="381.2" cy="279.5" rx="46.2" ry="15.7"></ellipse><path class="st1" d="M381.2,295.7c-26.2,0-46.7-7.1-46.7-16.2c0-9.1,20.5-16.2,46.7-16.2s46.7,7.1,46.7,16.2
		S407.4,295.7,381.2,295.7z M381.2,264.4c-25.2,0-45.6,6.8-45.6,15.1c0,8.3,20.5,15.1,45.6,15.1c25.2,0,45.6-6.8,45.6-15.1
		S406.4,264.5,381.2,264.4L381.2,264.4z"></path><path class="st1" d="M425.7,293c-0.3,0-0.5-0.3-0.6-0.6V284c0-0.3,0.2-0.6,0.6-0.6s0.6,0.2,0.6,0.6v8.4
		C426.3,292.7,426,293,425.7,293z"></path><path class="st1" d="M423.8,294.8c-0.3,0-0.6-0.2-0.6-0.6v-8.3c0-0.3,0.2-0.6,0.6-0.6s0.6,0.2,0.6,0.6v8.3
		C424.3,294.5,424.1,294.8,423.8,294.8z"></path><path class="st1" d="M421.9,296c-0.3,0-0.6-0.2-0.6-0.6v-8.3c0-0.3,0.2-0.6,0.6-0.6c0.3,0,0.5,0.3,0.6,0.6v8.3
		C422.4,295.7,422.2,296,421.9,296z"></path><path class="st1" d="M419.5,297.5c-0.3,0-0.6-0.2-0.6-0.6v-8.6c0-0.3,0.2-0.6,0.6-0.6s0.6,0.2,0.6,0.6v8.6
		C420.1,297.3,419.8,297.5,419.5,297.5z"></path><path class="st1" d="M416.3,298.7c-0.3,0-0.6-0.2-0.6-0.6V290c0-0.3,0.2-0.6,0.6-0.6s0.6,0.2,0.6,0.6v8.2
		C416.9,298.5,416.7,298.7,416.3,298.7C416.4,298.7,416.3,298.7,416.3,298.7z"></path><path class="st1" d="M411.7,300.5c-0.3,0-0.6-0.2-0.6-0.6v-8.5c0-0.3,0.2-0.6,0.6-0.6c0.3,0,0.5,0.3,0.6,0.6v8.5
		C412.3,300.2,412,300.5,411.7,300.5z"></path><ellipse class="st2" cx="381.2" cy="279.5" rx="40.5" ry="12.2"></ellipse><path class="st1" d="M381.2,292.2c-23,0-41-5.5-41-12.7s18-12.7,41-12.7c23,0,41,5.5,41,12.7S404.3,292.2,381.2,292.2z
		 M381.2,267.8c-21.7,0-39.9,5.3-39.9,11.6c0,6.3,18.3,11.6,39.9,11.6c21.6,0,39.9-5.3,39.9-11.6S402.9,267.9,381.2,267.8
		L381.2,267.8z"></path><path class="st0" d="M386,281.5c-0.1-0.9-1.3-1.8-2.5-2.6c-0.2-0.1-0.4-0.3-0.6-0.4l6.2-2.1c0.7,0.4,1.3,1,1.7,1.8
		c0.3,0.6,1.6,1.2,3.5,1.3c1.7,0.1,3.4-0.4,3.1-1c-0.8-1.6-2.2-2.9-3.8-3.5l2.7-0.9c1.4-0.5-1.1-1.4-2.5-0.9l-2.6,0.9
		c-0.8-0.2-1.6-0.4-2.5-0.6c-5.1-1-11.7-0.8-13.8,1c-1.6,1.4-0.3,3,1.6,4.6l-6.3,2.1c-1.1-0.5-1.9-1.4-2.4-2.5
		c-0.4-1.5-7.1-1.8-6.7-0.3c0.4,1.5,1.8,3,4.6,4.2l-1.6,0.6c-1.4,0.5,1.1,1.4,2.5,0.9l1.7-0.6l0.6,0.2c4.5,1.3,10.5,1.5,14.3,0.4
		C385.2,283.3,386.2,282.4,386,281.5z M381.2,276.5c-0.2-0.4-0.3-0.8,0-1.1c0.4-0.3,0.9-0.5,1.4-0.5c1.4-0.2,2.9,0,4.2,0.3l-5.3,1.8
		C381.4,276.9,381.3,276.7,381.2,276.5L381.2,276.5z M376,282.2c-1.1,0-2.1-0.2-3.2-0.4l5.5-1.8c0.4,0.2,0.7,0.5,0.9,0.8
		c0.2,0.2,0.2,0.2,0.2,0.4c0,0.1-0.1,0.2-0.1,0.3C378.3,282.1,377.1,282.3,376,282.2L376,282.2z"></path></g><g id="money"><path class="st1" d="M341,152.5c0,0-26.1,5.4-36.9,5s-16.4-3.1-28.2-2.5c-11.8,0.6-38.5,0.1-46.2-2.5l8.6,11.3l58.6,15.4l21-7.6
		L341,152.5z"></path><path class="st1" d="M297,179.7h-0.1l-58.6-15.4c-0.1,0-0.2-0.1-0.3-0.2l-8.6-11.3c-0.2-0.2-0.1-0.6,0.1-0.8
		c0.1-0.1,0.3-0.1,0.5-0.1c7.7,2.6,34.5,3.1,46.1,2.5c5.5-0.2,11,0.2,16.5,1.2c3.9,0.7,7.8,1.1,11.7,1.3c10.6,0.4,36.5-4.9,36.8-5
		c0.3-0.1,0.5,0.1,0.6,0.3c0.1,0.2,0,0.5-0.2,0.7l-23,19c0,0-0.1,0.1-0.2,0.1l-21,7.6L297,179.7z M238.7,163.3l58.3,15.3l20.8-7.5
		l21.3-17.5c-6.5,1.3-25.8,4.9-34.9,4.6c-4-0.2-7.9-0.6-11.9-1.3c-5.3-1-10.8-1.4-16.2-1.2c-11.2,0.6-35.4,0.1-44.8-2.1L238.7,163.3
		z"></path><path class="st0" d="M285.4,383.6c-52.3,0-86.8-7-84-16.6c2.8-9.5,13.1-13.9,13.1-13.9s-7.1-58.9,5.5-83.8s37-32.7,49.6-61.1
		c0,0-5.3-19-14.8-25c-9.5-6-27.9-21.6-25.1-30.6c6.8,9.1,16.6,4.2,23.8,5.3s13.6,8.6,22.8,9.1s8.6-6.9,19.8-10.9
		c11.3-4,19.3,3.5,26.1,3.7c6.8,0.3,18.9-7.2,18.9-7.2c2.8,9.1-15.5,24.6-25,30.6c-9.5,6-14.8,25-14.8,25
		c12.6,28.4,37,36.2,49.6,61.1s5.5,83.8,5.5,83.8s10.3,4.4,13.1,13.9C372.2,376.5,337.7,383.6,285.4,383.6z"></path><path class="st0" d="M269.6,208.2c13.9,3.2,31.7,0,31.7,0l1.6-4.8c0,0,5,3.3,5.7,7c0.7,3.7-5.9,6.1-23.1,7s-22.4-3.1-23.7-7
		c-1.3-3.9,6.2-7,6.2-7L269.6,208.2z"></path><path class="st1" d="M280.8,218c-11.3,0-17.9-2.5-19.6-7.5c-1.5-4.3,6.2-7.5,6.6-7.7c0.1-0.1,0.3-0.1,0.4,0
		c0.1,0.1,0.2,0.2,0.3,0.3l1.5,4.5c12.5,2.9,28.4,0.4,30.8,0l1.5-4.4c0.1-0.2,0.2-0.3,0.3-0.4c0.2-0.1,0.3,0,0.5,0.1
		c0.2,0.1,5.3,3.4,5.9,7.3c0.2,0.9-0.1,1.9-0.7,2.6c-2.2,2.8-9.5,4.3-23,5C283.8,218,282.2,218,280.8,218z M267.6,204.1
		c-2.2,1-6.3,3.5-5.4,6.1c1.7,5.1,9.5,7.3,23.1,6.6c12.8-0.7,20.3-2.2,22.2-4.6c0.4-0.5,0.6-1.1,0.5-1.7c-0.5-2.7-3.5-5.2-4.9-6.2
		l-1.4,4.1c-0.1,0.2-0.2,0.3-0.4,0.4c-0.2,0-18.1,3.2-31.9,0c-0.2,0-0.3-0.2-0.4-0.4L267.6,204.1z"></path><path class="st1" d="M305.1,177.2c-6.4,5.8-9.4,14-10.4,22.4c-0.3,2.7-0.5,5.4-0.5,8.1c0,0.3,0.2,0.6,0.6,0.6s0.6-0.2,0.6-0.6
		c0.2-8.5,1.3-17.3,6.1-24.6c1.3-1.9,2.7-3.6,4.4-5.1C306.4,177.5,305.6,176.7,305.1,177.2L305.1,177.2z"></path><path class="st1" d="M280.4,176.4c1.2,10.6,2.6,21.2,4.1,31.7c0.1,0.7,1.2,0.4,1.1-0.3c-1.6-10.4-2.9-20.9-4.1-31.4
		C281.5,175.7,280.4,175.7,280.4,176.4L280.4,176.4z"></path><path class="st1" d="M268.3,183.1c3.5,8.3,6.3,16.8,8.2,25.6c0.2,0.7,1.2,0.4,1.1-0.3c-2-8.9-4.7-17.5-8.3-25.9
		C269,181.8,268.1,182.4,268.3,183.1L268.3,183.1z"></path><path class="st1" d="M285.1,363.7c-41.5,0-61.1-7.5-61.3-7.5c-0.3-0.1-0.4-0.4-0.3-0.7c0,0,0,0,0,0c0.1-0.3,0.4-0.4,0.7-0.3
		c0,0,0,0,0,0c0.2,0.1,19.6,7.5,60.9,7.5s70.7-10,71-10c0.3-0.1,0.6,0,0.7,0.3c0.1,0.3,0,0.6-0.3,0.7c0,0-0.1,0-0.1,0
		C356.2,353.7,326.6,363.7,285.1,363.7z"></path><path class="st2" d="M281.5,333.9V325c-2.4-0.2-4.8-0.9-7.1-1.9c-2.1-0.9-3.9-2.2-5.5-3.8c-3.2-3.1-5-7.4-4.9-11.9v-4.2h11.9v3.8
		c0,1.6,0.4,3.2,1.3,4.5c1,1.5,2.6,2.5,4.3,2.7v-24.2l-4-1.5c-5.2-1.9-8.6-4.4-10.3-7.5c-1.9-3.6-2.8-7.7-2.6-11.7
		c-0.1-4.9,1.3-9.8,4.2-13.8c2.8-3.8,7-6.1,12.7-6.8v-7.9h6v7.9c2.5,0.2,4.9,0.9,7.2,2c2.1,1,4,2.3,5.5,3.9c1.5,1.5,2.7,3.3,3.5,5.3
		c0.8,1.8,1.2,3.8,1.2,5.8v5.3h-11.9v-2.4c0.1-2-0.4-4-1.2-5.8c-0.9-1.7-2.4-2.9-4.3-3.3v21.2l4.9,1.8c2.3,0.7,4.5,1.8,6.4,3.2
		c1.5,1.1,2.9,2.5,3.8,4.2c0.9,1.8,1.5,3.7,1.8,5.7c0.3,2.4,0.5,4.9,0.5,7.3c0,2.8-0.3,5.6-0.9,8.4c-0.5,2.4-1.5,4.6-2.9,6.7
		c-1.4,2-3.3,3.6-5.4,4.7c-2.6,1.3-5.4,2-8.2,2.2v8.9L281.5,333.9z M281.5,259.6c-1.8,0.5-3.3,1.9-4,3.7c-0.7,1.9-1,4-1,6
		c-0.1,1.9,0.2,3.9,0.8,5.7c0.5,1.3,1.9,2.4,4.2,3.4L281.5,259.6z M287.5,314.4c2.5-0.6,4-1.8,4.6-3.6c0.7-2.5,0.9-5,0.9-7.5
		c0-1.8-0.1-3.2-0.2-4.4c-0.1-1-0.3-2-0.8-3c-1.1-1.6-2.7-2.8-4.5-3.3V314.4z"></path></g><g id="coin-2"><g id="bitcoin_2"><path class="st0" d="M220.9,381.8c-9.9-4.9-26.4-8.1-45.2-8.1s-35.4,3.2-45.2,8.1h-9.5v10.5c0,10.2,24.5,18.6,54.8,18.6
			s54.8-8.3,54.8-18.6v-10.5H220.9z"></path><path class="st1" d="M175.6,411.4c-31.1,0-55.3-8.4-55.3-19.1v-10.5c0-0.3,0.2-0.6,0.6-0.6h9.4c10.3-5.1,27.3-8.1,45.4-8.1
			s35.1,3,45.4,8.1h9.4c0.3,0,0.6,0.2,0.6,0.6v10.5C231,403,206.7,411.4,175.6,411.4z M121.4,382.3v9.9c0,10,24.3,18,54.2,18
			s54.2-8.1,54.2-18v-9.9h-9c-0.1,0-0.2,0-0.2,0c-10.2-5-27-8-45-8s-34.8,3-45,8c-0.1,0-0.2,0-0.3,0H121.4z"></path><ellipse class="st2" cx="175.6" cy="381.8" rx="54.8" ry="18.6"></ellipse><path class="st1" d="M175.6,400.9c-31.1,0-55.3-8.4-55.3-19.1c0-10.7,24.3-19.1,55.3-19.1S231,371,231,381.8
			C231,392.5,206.7,400.9,175.6,400.9z M175.6,363.8c-29.9,0-54.2,8.1-54.2,18c0,9.9,24.3,18,54.2,18s54.2-8.1,54.2-18
			C229.9,371.8,205.5,363.8,175.6,363.8L175.6,363.8z"></path><path class="st1" d="M228.4,397.6c-0.3,0-0.6-0.2-0.6-0.6v-9.9c0-0.3,0.2-0.6,0.6-0.6s0.6,0.2,0.6,0.6v9.9
			C228.9,397.4,228.7,397.6,228.4,397.6z"></path><path class="st1" d="M226.1,399.8c-0.3,0-0.6-0.2-0.6-0.6v-9.9c0-0.3,0.2-0.6,0.6-0.6s0.6,0.2,0.6,0.6v9.9
			C226.7,399.5,226.4,399.8,226.1,399.8z"></path><path class="st1" d="M223.8,401.2c-0.3,0-0.6-0.2-0.6-0.6v-9.9c0-0.3,0.2-0.6,0.6-0.6c0.3,0,0.5,0.3,0.6,0.6v9.9
			C224.4,401,224.1,401.2,223.8,401.2z"></path><path class="st1" d="M221,403.1c-0.3,0-0.6-0.2-0.6-0.6v-10.2c0-0.3,0.2-0.6,0.6-0.6s0.6,0.2,0.6,0.6v10.2
			C221.6,402.8,221.3,403.1,221,403.1z"></path><path class="st1" d="M217.3,404.5c-0.3,0-0.6-0.2-0.6-0.6v-9.7c0-0.3,0.2-0.6,0.6-0.6s0.6,0.2,0.6,0.6v9.7
			C217.8,404.2,217.6,404.5,217.3,404.5z"></path><path class="st1" d="M211.8,406.5c-0.3,0-0.6-0.2-0.6-0.6v-10.1c0-0.3,0.3-0.5,0.6-0.6c0.3,0,0.6,0.2,0.6,0.6V406
			C212.4,406.3,212.1,406.5,211.8,406.5z"></path><ellipse class="st2" cx="175.6" cy="381.8" rx="48" ry="14.4"></ellipse><path class="st1" d="M175.6,396.8c-27.3,0-48.6-6.6-48.6-15c0-8.4,21.4-15,48.6-15s48.6,6.6,48.6,15
			C224.2,390.2,202.9,396.8,175.6,396.8z M175.6,367.9c-25.7,0-47.5,6.4-47.5,13.9s21.8,13.9,47.5,13.9s47.5-6.4,47.5-13.9
			S201.4,367.9,175.6,367.9L175.6,367.9z"></path><path class="st0" d="M181.4,384.1c-0.2-1.1-1.6-2.1-3-3.1c-0.2-0.2-0.5-0.3-0.7-0.5l7.4-2.5c0.9,0.5,1.6,1.2,2,2.1
			c0.3,0.8,2,1.5,4.2,1.6c2,0.1,4-0.5,3.7-1.3c-1-1.9-2.6-3.4-4.6-4.2l3.2-1.1c1.7-0.6-1.3-1.7-3-1.1l-3.1,1c-1-0.3-1.9-0.5-2.9-0.7
			c-6.1-1.2-13.9-1-16.3,1.2c-1.9,1.7-0.3,3.6,1.9,5.4l-7.5,2.5c-1.3-0.6-2.3-1.6-2.8-3c-0.5-1.8-8.4-2.1-7.9-0.3
			c0.5,1.8,2.2,3.5,5.5,5l-1.9,0.7c-1.7,0.6,1.3,1.7,3,1.1l2-0.7l0.7,0.2c5.4,1.5,12.5,1.8,17,0.4
			C180.3,386.2,181.5,385.2,181.4,384.1z M175.6,378.2c-0.2-0.4-0.3-0.9,0-1.3c0.5-0.3,1-0.5,1.6-0.5c1.7-0.2,3.4,0,5,0.4l-6.2,2.1
			C175.8,378.7,175.7,378.5,175.6,378.2z M169.4,385c-1.3,0-2.5-0.2-3.8-0.5l6.5-2.2c0.4,0.3,0.8,0.6,1.1,1c0.2,0.2,0.2,0.3,0.2,0.5
			c0,0.1-0.1,0.3-0.1,0.4C172.1,384.8,170.8,385.1,169.4,385L169.4,385z"></path><path class="st0" d="M220.9,364.5c-9.9-4.9-26.4-8.1-45.2-8.1s-35.4,3.2-45.2,8.1h-9.5V375c0,10.3,24.5,18.6,54.8,18.6
			s54.8-8.3,54.8-18.6v-10.5H220.9z"></path><path class="st1" d="M175.6,394.1c-31.1,0-55.3-8.4-55.3-19.1v-10.5c0-0.3,0.2-0.6,0.6-0.6h9.4c10.3-5.1,27.3-8.1,45.4-8.1
			s35.1,3,45.4,8.1h9.4c0.3,0,0.6,0.2,0.6,0.6V375C231,385.7,206.7,394.1,175.6,394.1z M121.4,365.1v9.9c0,10,24.3,18,54.2,18
			s54.2-8.1,54.2-18v-9.9h-9c-0.1,0-0.2,0-0.2-0.1c-10.2-5-27-8-45-8s-34.8,3-45,8c-0.1,0-0.2,0.1-0.3,0.1H121.4z"></path><ellipse class="st2" cx="175.6" cy="364.5" rx="54.8" ry="18.6"></ellipse><path class="st1" d="M175.6,383.7c-31.1,0-55.3-8.4-55.3-19.1c0-10.7,24.3-19.1,55.3-19.1s55.3,8.4,55.3,19.1
			S206.7,383.7,175.6,383.7z M175.6,346.5c-29.9,0-54.2,8.1-54.2,18c0,9.9,24.3,18,54.2,18s54.2-8.1,54.2-18
			C229.9,354.6,205.5,346.5,175.6,346.5L175.6,346.5z"></path><path class="st1" d="M228.4,380.4c-0.3,0-0.5-0.3-0.6-0.6v-10c0-0.3,0.2-0.6,0.6-0.6s0.6,0.2,0.6,0.6v10
			C228.9,380.1,228.7,380.4,228.4,380.4z"></path><path class="st1" d="M226.1,382.5c-0.3,0-0.6-0.2-0.6-0.6v-9.9c0-0.3,0.2-0.6,0.6-0.6s0.6,0.2,0.6,0.6v9.9
			C226.6,382.3,226.4,382.5,226.1,382.5z"></path><path class="st1" d="M223.8,384c-0.3,0-0.6-0.2-0.6-0.6v-9.9c0-0.3,0.2-0.6,0.6-0.6s0.6,0.2,0.6,0.6v9.9
			C224.4,383.7,224.1,384,223.8,384z"></path><path class="st1" d="M221,385.8c-0.3,0-0.6-0.2-0.6-0.6V375c0-0.3,0.2-0.6,0.6-0.6c0.3,0,0.5,0.3,0.6,0.6v10.2
			C221.6,385.6,221.3,385.8,221,385.8z"></path><path class="st1" d="M217.3,387.2c-0.3,0-0.5-0.3-0.6-0.6V377c0-0.3,0.2-0.6,0.6-0.6s0.6,0.2,0.6,0.6v9.7
			C217.8,387,217.6,387.2,217.3,387.2z"></path><path class="st1" d="M211.8,389.3c-0.3,0-0.6-0.2-0.6-0.6v-10c0-0.3,0.3-0.5,0.6-0.6c0.3,0,0.6,0.2,0.6,0.6v10.1
			C212.4,389.1,212.1,389.3,211.8,389.3z"></path><ellipse class="st2" cx="175.6" cy="364.5" rx="48" ry="14.4"></ellipse><path class="st1" d="M175.6,379.5c-27.3,0-48.6-6.6-48.6-15s21.4-15,48.6-15s48.6,6.6,48.6,15S202.9,379.5,175.6,379.5z
			 M175.6,350.7c-25.7,0-47.5,6.4-47.5,13.9s21.8,13.9,47.5,13.9s47.5-6.4,47.5-13.9S201.4,350.7,175.6,350.7L175.6,350.7z"></path><path class="st0" d="M181.4,366.9c-0.2-1.1-1.6-2.1-3-3.1l-0.7-0.5l7.4-2.5c0.9,0.5,1.6,1.2,2,2.1c0.3,0.8,2,1.5,4.2,1.6
			c2,0.1,4-0.5,3.7-1.2c-1-1.9-2.6-3.4-4.6-4.2l3.2-1.1c1.7-0.6-1.3-1.7-3-1.1l-3.1,1c-0.9-0.3-1.9-0.5-2.9-0.7
			c-6.1-1.2-13.9-1-16.3,1.2c-1.9,1.7-0.3,3.6,1.9,5.4l-7.5,2.5c-1.3-0.6-2.3-1.6-2.8-3c-0.5-1.8-8.4-2.1-7.9-0.3
			c0.5,1.8,2.2,3.6,5.5,5l-1.9,0.7c-1.7,0.6,1.3,1.7,3,1.1l2-0.7l0.7,0.2c5.4,1.5,12.5,1.8,17,0.4C180.3,369,181.5,368,181.4,366.9z
			 M175.6,360.9c-0.2-0.4-0.3-0.9,0-1.3c0.5-0.3,1-0.5,1.6-0.5c1.7-0.2,3.4,0,5,0.4l-6.2,2.1C175.8,361.4,175.7,361.2,175.6,360.9z
			 M169.4,367.7c-1.3,0-2.5-0.2-3.8-0.5l6.5-2.2c0.4,0.3,0.8,0.6,1.1,1c0.2,0.2,0.2,0.3,0.2,0.5c0,0.1-0.1,0.3-0.1,0.4
			C172.1,367.5,170.8,367.8,169.4,367.7L169.4,367.7z"></path><path class="st0" d="M214.8,348.1c-9.9-4.9-26.4-8.1-45.2-8.1s-35.4,3.2-45.3,8.1h-9.5v10.5c0,10.2,24.5,18.6,54.8,18.6
			s54.8-8.3,54.8-18.6v-10.5H214.8z"></path><path class="st1" d="M169.5,377.6c-31.1,0-55.3-8.4-55.3-19.1v-10.5c0-0.3,0.3-0.5,0.6-0.6h9.4c10.3-5.1,27.3-8.1,45.4-8.1
			s35.1,3,45.4,8.1h9.4c0.3,0,0.5,0.3,0.6,0.6v10.5C224.9,369.2,200.6,377.6,169.5,377.6z M115.3,348.6v9.9c0,9.9,24.3,18,54.2,18
			s54.2-8.1,54.2-18v-9.9h-9c-0.1,0-0.2,0-0.2-0.1c-10.2-5-27-8-45-8s-34.8,3-45,8c-0.1,0-0.2,0.1-0.2,0.1H115.3z"></path><ellipse class="st2" cx="169.5" cy="348.1" rx="54.8" ry="18.6"></ellipse><path class="st1" d="M169.5,367.2c-31.1,0-55.3-8.4-55.3-19.1c0-10.7,24.3-19.1,55.3-19.1s55.3,8.4,55.3,19.1
			S200.6,367.2,169.5,367.2z M169.5,330.1c-29.9,0-54.2,8.1-54.2,18s24.3,18,54.2,18s54.2-8.1,54.2-18
			C223.8,338.1,199.4,330.1,169.5,330.1z"></path><path class="st1" d="M222.3,363.9c-0.3,0-0.6-0.2-0.6-0.6v-10c0-0.3,0.2-0.6,0.6-0.6s0.6,0.2,0.6,0.6v10
			C222.9,363.7,222.6,363.9,222.3,363.9z"></path><path class="st1" d="M220,366.1c-0.3,0-0.6-0.2-0.6-0.6v-9.9c0-0.3,0.2-0.6,0.6-0.6c0.3,0,0.5,0.3,0.6,0.6v9.9
			C220.6,365.8,220.3,366.1,220,366.1z"></path><path class="st1" d="M217.7,367.5c-0.3,0-0.6-0.2-0.6-0.6v-9.9c0-0.3,0.2-0.6,0.6-0.6c0.3,0,0.6,0.2,0.6,0.6v9.9
			C218.3,367.3,218,367.5,217.7,367.5z"></path><path class="st1" d="M214.9,369.4c-0.3,0-0.6-0.2-0.6-0.6v-10.2c0-0.3,0.2-0.6,0.6-0.6s0.6,0.2,0.6,0.6v10.2
			C215.5,369.1,215.2,369.4,214.9,369.4z"></path><path class="st1" d="M211.2,370.8c-0.3,0-0.6-0.2-0.6-0.6v-9.7c0-0.3,0.2-0.6,0.6-0.6c0.3,0,0.6,0.2,0.6,0.6v9.7
			C211.7,370.5,211.5,370.8,211.2,370.8z"></path><path class="st1" d="M205.7,372.8c-0.3,0-0.6-0.2-0.6-0.6v-10.1c0-0.3,0.2-0.6,0.6-0.6s0.6,0.2,0.6,0.6v10.1
			C206.3,372.6,206.1,372.8,205.7,372.8z"></path><ellipse class="st2" cx="169.5" cy="348.1" rx="48" ry="14.4"></ellipse><path class="st1" d="M169.5,363c-27.3,0-48.6-6.6-48.6-15s21.3-15,48.6-15s48.6,6.6,48.6,15S196.8,363,169.5,363z M169.5,334.2
			c-25.7,0-47.5,6.4-47.5,13.9c0,7.5,21.7,13.9,47.5,13.9s47.5-6.4,47.5-13.9C217,340.6,195.3,334.2,169.5,334.2L169.5,334.2z"></path><path class="st0" d="M175.3,350.4c-0.2-1.1-1.6-2.1-3-3.1c-0.3-0.2-0.5-0.4-0.7-0.5l7.4-2.5c0.9,0.5,1.6,1.2,2,2.1
			c0.3,0.8,2,1.5,4.2,1.6c2,0.1,4-0.5,3.7-1.2c-1-1.9-2.6-3.4-4.6-4.2l3.2-1.1c1.7-0.6-1.3-1.7-3-1.1l-3.1,1
			c-0.9-0.3-1.9-0.5-2.9-0.8c-6.1-1.2-13.9-1-16.3,1.2c-1.9,1.7-0.3,3.6,1.9,5.4l-7.5,2.5c-1.3-0.6-2.3-1.6-2.8-2.9
			c-0.5-1.8-8.4-2.1-7.9-0.3c0.5,1.8,2.2,3.6,5.5,5l-1.9,0.7c-1.7,0.6,1.3,1.7,3,1.1l1.9-0.7l0.7,0.2c5.4,1.5,12.5,1.8,17,0.4
			C174.2,352.5,175.4,351.5,175.3,350.4z M169.5,344.5c-0.2-0.4-0.3-0.9,0-1.3c0.5-0.3,1-0.5,1.6-0.5c1.7-0.2,3.4,0,5,0.4l-6.2,2.1
			C169.7,345,169.6,344.8,169.5,344.5L169.5,344.5z M163.3,351.3c-1.3,0-2.5-0.2-3.7-0.5l6.4-2.2c0.4,0.3,0.8,0.6,1.1,1
			c0.2,0.2,0.2,0.3,0.2,0.5c0,0.1-0.1,0.3-0.1,0.4C166,351.1,164.7,351.4,163.3,351.3L163.3,351.3z"></path><path class="st0" d="M223.7,330c-9.9-4.9-26.4-8.1-45.2-8.1s-35.4,3.2-45.2,8.1h-9.5v10.5c0,10.2,24.5,18.6,54.8,18.6
			s54.8-8.3,54.8-18.6V330H223.7z"></path><path class="st1" d="M178.4,359.6c-31.1,0-55.3-8.4-55.3-19.1V330c0-0.3,0.2-0.6,0.6-0.6h9.4c10.3-5.1,27.3-8.1,45.4-8.1
			s35.1,3,45.4,8.1h9.4c0.3,0,0.6,0.2,0.6,0.6v10.5C233.8,351.2,209.5,359.6,178.4,359.6z M124.3,330.6v9.9c0,9.9,24.3,18,54.2,18
			s54.2-8.1,54.2-18v-9.9h-9c-0.1,0-0.2,0-0.2-0.1c-10.2-5-27-8-45-8s-34.8,3-45,8c-0.1,0-0.2,0.1-0.3,0.1H124.3z"></path><ellipse class="st2" cx="178.4" cy="330" rx="54.8" ry="18.6"></ellipse><path class="st1" d="M178.4,349.2c-31.1,0-55.3-8.4-55.3-19.1s24.3-19.1,55.3-19.1s55.3,8.4,55.3,19.1
			C233.8,340.8,209.5,349.2,178.4,349.2z M178.4,312c-29.9,0-54.2,8.1-54.2,18c0,9.9,24.3,18,54.2,18s54.2-8.1,54.2-18
			C232.7,320.1,208.3,312,178.4,312z"></path><path class="st1" d="M231.2,345.9c-0.3,0-0.6-0.2-0.6-0.6v-10c0-0.3,0.3-0.5,0.6-0.6c0.3,0,0.6,0.2,0.6,0.6v10
			C231.7,345.6,231.5,345.9,231.2,345.9z"></path><path class="st1" d="M228.9,348c-0.3,0-0.6-0.2-0.6-0.6v-9.8c0-0.3,0.2-0.6,0.6-0.6c0.3,0,0.5,0.3,0.6,0.6v9.9
			C229.4,347.8,229.2,348,228.9,348z"></path><path class="st1" d="M226.6,349.5c-0.3,0-0.6-0.2-0.6-0.6v-9.9c0-0.3,0.2-0.6,0.6-0.6s0.6,0.2,0.6,0.6v9.9
			C227.2,349.3,226.9,349.5,226.6,349.5z"></path><path class="st1" d="M223.8,351.3c-0.3,0-0.6-0.2-0.6-0.6v-10.2c0-0.3,0.2-0.6,0.6-0.6s0.6,0.2,0.6,0.6v10.2
			C224.4,351.1,224.1,351.3,223.8,351.3z"></path><path class="st1" d="M220.1,352.7c-0.3,0-0.6-0.2-0.6-0.6v-9.7c0-0.3,0.3-0.5,0.6-0.6c0.3,0,0.6,0.2,0.6,0.6v9.7
			C220.6,352.5,220.4,352.7,220.1,352.7z"></path><path class="st1" d="M214.6,354.8c-0.3,0-0.6-0.2-0.6-0.6v-10.1c0-0.3,0.2-0.6,0.6-0.6s0.6,0.2,0.6,0.6v10.1
			C215.2,354.6,214.9,354.8,214.6,354.8z"></path><ellipse class="st2" cx="178.4" cy="330" rx="48" ry="14.4"></ellipse><path class="st1" d="M178.4,345c-27.3,0-48.6-6.6-48.6-15c0-8.4,21.4-15,48.6-15s48.6,6.6,48.6,15S205.7,345,178.4,345z
			 M178.4,316.2c-25.7,0-47.5,6.4-47.5,13.9s21.8,13.9,47.5,13.9s47.5-6.4,47.5-13.9S204.1,316.2,178.4,316.2L178.4,316.2z"></path><path class="st0" d="M184.2,332.4c-0.2-1.1-1.6-2.1-3-3.1c-0.2-0.2-0.5-0.3-0.7-0.5l7.4-2.5c0.9,0.5,1.6,1.2,2,2.1
			c0.3,0.8,2,1.5,4.2,1.6c2,0.1,4-0.5,3.7-1.2c-1-1.9-2.6-3.4-4.6-4.2l3.2-1.1c1.7-0.6-1.3-1.7-3-1.1l-3.1,1c-1-0.3-1.9-0.5-2.9-0.7
			c-6.1-1.2-13.9-1-16.3,1.2c-1.9,1.7-0.3,3.6,1.9,5.4l-7.5,2.5c-1.3-0.6-2.3-1.6-2.8-3c-0.5-1.8-8.4-2.1-7.9-0.3
			c0.5,1.8,2.2,3.6,5.5,5l-1.9,0.7c-1.7,0.6,1.3,1.7,3,1.1l2-0.7l0.7,0.2c5.4,1.5,12.5,1.8,17,0.4
			C183.1,334.5,184.3,333.5,184.2,332.4z M178.4,326.6c-0.2-0.4-0.3-0.9,0-1.3c0.5-0.3,1-0.5,1.6-0.5c1.7-0.2,3.4,0,5,0.4l-6.2,2.1
			C178.6,327,178.5,326.8,178.4,326.6z M172.2,333.2c-1.3,0-2.5-0.2-3.8-0.5l6.5-2.2c0.4,0.3,0.8,0.6,1.1,1c0.2,0.2,0.2,0.3,0.2,0.5
			c0,0.1-0.1,0.3-0.1,0.4C174.9,333,173.6,333.3,172.2,333.2z"></path><path class="st0" d="M220.9,312.8c-9.9-4.9-26.4-8.1-45.2-8.1s-35.4,3.2-45.2,8.1h-9.5v10.4c0,10.2,24.5,18.6,54.8,18.6
			s54.8-8.3,54.8-18.6v-10.5L220.9,312.8z"></path><path class="st1" d="M175.6,342.4c-31.1,0-55.3-8.4-55.3-19.1v-10.5c0-0.3,0.2-0.6,0.6-0.6h9.4c10.3-5.1,27.3-8.1,45.4-8.1
			s35.1,3,45.4,8.1h9.4c0.3,0,0.6,0.2,0.6,0.6v10.4C231,334,206.7,342.4,175.6,342.4z M121.4,313.4v9.9c0,10,24.3,18,54.2,18
			s54.2-8,54.2-18v-9.9h-9c-0.1,0-0.2,0-0.2,0c-10.2-5-27-8-45-8s-34.8,3-45,8c-0.1,0-0.2,0-0.3,0L121.4,313.4z"></path><ellipse class="st2" cx="175.6" cy="312.8" rx="54.8" ry="18.6"></ellipse><path class="st1" d="M175.6,331.9c-31.1,0-55.3-8.4-55.3-19.1c0-10.7,24.3-19.1,55.3-19.1s55.3,8.4,55.3,19.1
			C231,323.5,206.7,331.9,175.6,331.9z M175.6,294.8c-29.9,0-54.2,8.1-54.2,18c0,9.9,24.3,18,54.2,18s54.2-8.1,54.2-18
			C229.9,302.9,205.5,294.8,175.6,294.8z"></path><path class="st1" d="M228.4,328.6c-0.3,0-0.6-0.2-0.6-0.6v-9.9c0-0.3,0.2-0.6,0.6-0.6s0.6,0.2,0.6,0.6v9.9
			C228.9,328.4,228.7,328.6,228.4,328.6z"></path><path class="st1" d="M226.1,330.8c-0.3,0-0.6-0.2-0.6-0.6v-9.9c0-0.3,0.2-0.6,0.6-0.6s0.6,0.2,0.6,0.6v9.9
			C226.7,330.5,226.4,330.8,226.1,330.8z"></path><path class="st1" d="M223.8,332.3c-0.3,0-0.6-0.2-0.6-0.6v-9.9c0-0.3,0.2-0.6,0.6-0.6c0.3,0,0.5,0.3,0.6,0.6v9.9
			C224.4,332,224.1,332.3,223.8,332.3z"></path><path class="st1" d="M221,334.1c-0.3,0-0.6-0.2-0.6-0.6v-10.2c0-0.3,0.2-0.6,0.6-0.6s0.6,0.2,0.6,0.6v10.2
			C221.6,333.8,221.3,334.1,221,334.1z"></path><path class="st1" d="M217.3,335.5c-0.3,0-0.6-0.2-0.6-0.6v-9.7c0-0.3,0.2-0.6,0.6-0.6s0.6,0.2,0.6,0.6v9.7
			C217.8,335.2,217.6,335.5,217.3,335.5z"></path><path class="st1" d="M211.8,337.6c-0.3,0-0.6-0.2-0.6-0.6v-10.1c0-0.3,0.3-0.5,0.6-0.6c0.3,0,0.6,0.2,0.6,0.6V337
			C212.4,337.3,212.1,337.6,211.8,337.6z"></path><ellipse class="st2" cx="175.6" cy="312.8" rx="48" ry="14.4"></ellipse><path class="st1" d="M175.6,327.8c-27.3,0-48.6-6.6-48.6-15s21.4-15,48.6-15s48.6,6.6,48.6,15S202.9,327.8,175.6,327.8z
			 M175.6,298.9c-25.7,0-47.5,6.4-47.5,13.9s21.8,13.9,47.5,13.9s47.5-6.4,47.5-13.9S201.4,298.9,175.6,298.9L175.6,298.9z"></path><path class="st0" d="M181.4,315.1c-0.2-1.1-1.6-2.1-3-3.1l-0.7-0.5l7.4-2.5c0.9,0.5,1.6,1.2,2,2.1c0.3,0.8,2,1.5,4.2,1.6
			c2,0.1,4-0.5,3.7-1.3c-1-1.9-2.6-3.4-4.6-4.2l3.2-1.1c1.7-0.6-1.3-1.7-3-1.1l-3.1,1c-1-0.3-1.9-0.5-2.9-0.7
			c-6.1-1.2-13.9-1-16.3,1.2c-1.9,1.7-0.3,3.6,1.9,5.4l-7.5,2.5c-1.3-0.6-2.3-1.6-2.8-3c-0.5-1.8-8.4-2.1-7.9-0.3
			c0.5,1.8,2.2,3.6,5.5,5l-1.9,0.6c-1.7,0.6,1.3,1.7,3,1.1l2-0.7l0.7,0.2c5.4,1.5,12.5,1.8,17,0.4
			C180.3,317.3,181.5,316.2,181.4,315.1z M175.6,309.3c-0.2-0.4-0.3-0.9,0-1.3c0.5-0.3,1-0.5,1.6-0.5c1.7-0.2,3.4,0,5,0.4l-6.2,2.1
			C175.8,309.7,175.7,309.5,175.6,309.3z M169.4,316c-1.3,0-2.5-0.2-3.8-0.5l6.5-2.2c0.4,0.3,0.8,0.6,1.1,1c0.2,0.2,0.2,0.3,0.2,0.5
			c0,0.1-0.1,0.3-0.1,0.4C172.1,315.9,170.8,316.1,169.4,316L169.4,316z"></path></g><g id="etherium_2"><path class="st0" d="M138.4,343.1l-8.7-3.1l-0.9,2.8c-12.3,2.8-24.9,16.7-30.9,35.9c-6.1,19.2-3.7,37.9,4.7,47.2l-0.7,2.2l8.7,3.1
			c14.7,4.6,32.9-11.3,40.6-35.6C158.9,371.3,153.2,347.8,138.4,343.1z"></path><path class="st1" d="M116,432.6c-1.9,0-3.7-0.3-5.5-0.8l-8.8-3.1c-0.3-0.1-0.4-0.4-0.3-0.7l0.6-1.9c-8.7-9.8-10.5-28.8-4.6-47.5
			s18.3-33.2,31.1-36.2l0.8-2.5c0-0.1,0.1-0.3,0.3-0.3c0.1-0.1,0.3-0.1,0.4,0l8.7,3.1c7.3,2.3,12.7,9.2,15.2,19.2
			c2.5,10.1,1.7,22.1-2,33.9c-3.7,11.9-10.1,22.2-17.7,28.9C128.1,429.9,121.8,432.6,116,432.6z M102.6,427.8l8.2,3
			c6.9,2.2,14.9-0.3,22.4-6.9c7.5-6.6,13.8-16.8,17.5-28.5c3.7-11.7,4.4-23.5,2-33.3c-2.4-9.8-7.5-16.3-14.4-18.5l0,0l-8.2-2.9
			l-0.7,2.3c-0.1,0.2-0.2,0.3-0.4,0.4c-12.4,2.8-24.7,17.1-30.5,35.6c-5.8,18.5-4,37.2,4.6,46.7c0.1,0.1,0.2,0.4,0.1,0.5
			L102.6,427.8z"></path><ellipse class="st2" transform="matrix(0.3005 -0.9538 0.9538 0.3005 -285.3117 379.1114)" cx="115.8" cy="384.1" rx="46.2" ry="28"></ellipse><path class="st1" d="M107.2,429.5c-1.8,0-3.7-0.3-5.4-0.8c-15-4.7-20.9-28.6-13.2-53.2c3.7-11.9,10.1-22.2,17.7-28.9
			c7.7-6.8,16.1-9.4,23.5-7.1c15,4.7,20.9,28.6,13.2,53.2l-0.5-0.2l0.5,0.2C136.2,414.3,121,429.5,107.2,429.5z M124.4,339.7
			c-5.5,0-11.5,2.6-17.3,7.6c-7.6,6.7-13.8,16.8-17.5,28.5c-7.5,24-2,47.2,12.4,51.8s32.3-11.3,39.9-35.3c7.6-24,2-47.2-12.4-51.8
			C127.9,340,126.1,339.7,124.4,339.7z"></path><ellipse class="st2" transform="matrix(0.3011 -0.9536 0.9536 0.3011 -286.7481 377.5374)" cx="114.2" cy="384.4" rx="38.6" ry="21.2"></ellipse><path class="st1" d="M107.8,422.1c-1.3,0-2.6-0.2-3.8-0.6c-5.6-1.8-9.6-7.4-11.3-15.8c-1.7-8.4-0.8-18.3,2.3-28.3
			c6.5-20.7,21.2-34.6,32.6-30.9s15.5,23.4,9,44c-3.1,10-8.2,18.7-14.3,24.5C117.5,419.7,112.5,422.1,107.8,422.1z M123.8,347.1
			c-10.2,0-22.1,12.7-27.7,30.7c-3.1,9.8-3.9,19.6-2.3,27.7c1.6,8.1,5.3,13.3,10.6,14.9s11.3-0.5,17.2-6.2c5.9-5.6,10.9-14.3,14-24
			l0,0c6.3-20.1,2.6-39.2-8.3-42.6C126.2,347.3,125,347.1,123.8,347.1L123.8,347.1z"></path><line class="st3" x1="136.5" y1="344" x2="144.2" y2="346.2"></line><path class="st1" d="M144.2,346.8c-0.1,0-0.1,0-0.2,0l-7.8-2.2c-0.3-0.1-0.5-0.4-0.4-0.7c0.1-0.3,0.4-0.5,0.7-0.4l7.8,2.2
			c0.3,0.1,0.5,0.4,0.4,0.7C144.7,346.6,144.4,346.8,144.2,346.8z"></path><line class="st3" x1="138.7" y1="346.2" x2="146.4" y2="348.4"></line><path class="st1" d="M146.4,349c-0.1,0-0.1,0-0.2,0l-7.7-2.2c-0.3-0.1-0.5-0.4-0.4-0.7c0.1-0.3,0.4-0.5,0.7-0.4l7.7,2.2
			c0.3,0.1,0.5,0.4,0.4,0.7C146.8,348.8,146.6,349,146.4,349z"></path><line class="st3" x1="140.5" y1="348.4" x2="148.3" y2="350.7"></line><path class="st1" d="M148.3,351.2h-0.2l-7.7-2.2c-0.3-0.1-0.5-0.4-0.4-0.7c0.1-0.3,0.4-0.5,0.7-0.4l7.7,2.2c0.3,0,0.5,0.3,0.5,0.6
			C148.8,351.1,148.6,351.3,148.3,351.2L148.3,351.2z"></path><line class="st3" x1="142.2" y1="351.6" x2="150.3" y2="354"></line><path class="st1" d="M150.3,354.5h-0.2l-8.2-2.4c-0.3-0.1-0.5-0.4-0.4-0.7c0.1-0.3,0.4-0.5,0.7-0.4c0,0,0,0,0,0l8.2,2.4
			c0.3,0,0.5,0.3,0.5,0.6C150.9,354.4,150.7,354.6,150.3,354.5L150.3,354.5z"></path><path class="st0" d="M121.9,388.2c-1.1-2.1-2.5-3.9-4.3-5.3l-0.9-0.8l2.9-7.8c1.2,1,2.2,2.2,2.9,3.6c0.7,1.5,2.4,2.2,4,1.7
			c1.5-0.6,2.1-2.3,1.5-3.8c0,0,0-0.1,0-0.1c-1.5-2.8-3.6-5.3-6.2-7.1l1.3-3.3c0.7-1.8-2.1-3-2.8-1.2l-1.2,3.2
			c-0.8-0.3-1.6-0.4-2.5-0.5c-4.9-0.4-9.8,3-9.8,8.3c0,4.1,2.6,7.6,5.4,10.5l-3,7.9c-1.8-1.3-3.2-3.1-4.1-5.1
			c-1.7-3.5-7.2-1.4-5.4,2.2c1.6,3.5,4.2,6.4,7.5,8.4l-0.8,2c-0.7,1.8,2.1,3,2.8,1.2l0.8-2l0.6,0.2c4.6,1.3,9.4-0.9,11.4-5.2
			C122.9,392.9,122.9,390.4,121.9,388.2z M113.6,378.2c-0.5-0.8-0.8-1.7-1-2.6c0-0.6,0.2-1.2,0.6-1.7c0.9-1,2.3-1.3,3.6-1l-2.5,6.5
			C114.1,379,113.8,378.6,113.6,378.2L113.6,378.2z M114.7,394.3c-0.9,0.4-1.9,0.5-2.8,0.4l2.5-6.8c0.5,0.5,1,1,1.5,1.6
			c0.2,0.3,0.4,0.6,0.5,0.9c0.1,0.2,0.2,0.9,0.2,0.9C116.6,392.5,115.8,393.7,114.7,394.3L114.7,394.3z"></path></g></g><g id="blink"><path class="st2" d="M155.9,289.8c-4,0.1-7.7,2.1-10,5.4c-2.7,3.8-4.2,8.4-4.1,13.1c0-10.3-6.3-18.6-14.1-18.6
		c4-0.1,7.7-2.1,10-5.4c2.8-3.8,4.2-8.4,4.1-13.1c-0.1,4.7,1.4,9.4,4.1,13.2C148.3,287.7,152,289.7,155.9,289.8z"></path><path class="st1" d="M141.9,309c-0.3,0-0.6-0.2-0.6-0.6c0-10-6.1-18-13.5-18c-0.3,0-0.5-0.3-0.6-0.6c0-0.3,0.2-0.6,0.6-0.6
		c3.8-0.1,7.3-2.1,9.5-5.2c2.7-3.7,4.1-8.2,4-12.8c0-0.3,0.2-0.6,0.6-0.6s0.6,0.2,0.6,0.6c-0.1,4.6,1.3,9.1,4,12.8
		c2.2,3.2,5.7,5.1,9.5,5.2c0.3,0,0.6,0.2,0.6,0.6c0,0.3-0.3,0.5-0.6,0.6c-3.8,0.1-7.4,2.1-9.5,5.2c-2.7,3.7-4.1,8.2-4,12.8
		C142.5,308.7,142.2,309,141.9,309C141.9,309,141.9,309,141.9,309z M131.3,289.8c5.1,1.6,9.1,6.8,10.6,13.3c0.6-3,1.9-5.8,3.7-8.2
		c1.7-2.4,4.1-4.2,6.9-5.1c-2.8-1-5.2-2.7-6.9-5.1c-1.8-2.4-3.1-5.3-3.7-8.2c-0.6,3-1.9,5.8-3.7,8.2
		C136.5,287,134.1,288.8,131.3,289.8z"></path><path class="st2" d="M130.4,264.4c-4,0.1-7.7,2.1-10,5.4c-2.7,3.8-4.2,8.4-4.1,13.1c0-10.3-6.3-18.6-14.1-18.6
		c4-0.1,7.7-2.1,10-5.4c2.8-3.8,4.2-8.4,4.1-13.1c-0.1,4.7,1.4,9.3,4.1,13.1C122.7,262.2,126.4,264.2,130.4,264.4z"></path><path class="st1" d="M116.3,283.5c-0.3,0-0.6-0.2-0.6-0.6c0-10-6.1-18-13.5-18c-0.3,0-0.6-0.2-0.6-0.6s0.2-0.6,0.6-0.6
		c3.8-0.1,7.3-2.1,9.5-5.2c2.7-3.7,4.1-8.2,4-12.8c0-0.3,0.2-0.6,0.6-0.6c0.3,0,0.6,0.2,0.6,0.6c-0.1,4.6,1.4,9.1,4,12.8
		c2.2,3.2,5.7,5.1,9.5,5.2c0.3,0,0.6,0.2,0.6,0.6s-0.2,0.6-0.6,0.6c-3.8,0.1-7.4,2.1-9.5,5.2c-2.7,3.7-4.1,8.2-4,12.8
		C116.9,283.3,116.7,283.5,116.3,283.5C116.4,283.5,116.4,283.5,116.3,283.5z M105.8,264.4c5.1,1.7,9.1,6.8,10.6,13.3
		c0.6-3,1.9-5.8,3.7-8.2c1.7-2.4,4.1-4.2,6.9-5.1c-2.8-1-5.2-2.7-6.9-5.1c-1.8-2.4-3.1-5.2-3.7-8.2c-0.6,3-1.9,5.8-3.7,8.2
		C111,261.6,108.6,263.4,105.8,264.4z"></path><path class="st2" d="M109.9,296.2c-2.6,0.1-5,1.4-6.5,3.6c-1.8,2.5-2.7,5.5-2.7,8.6c0-6.7-4.1-12.2-9.2-12.2c2.6-0.1,5-1.4,6.5-3.5
		c1.8-2.5,2.8-5.5,2.7-8.6c0,3.1,0.9,6.1,2.7,8.6C104.8,294.8,107.2,296.1,109.9,296.2z"></path><path class="st1" d="M100.6,308.9c-0.3,0-0.6-0.2-0.6-0.6c0-6.4-3.9-11.6-8.7-11.6c-0.3,0-0.6-0.2-0.6-0.6c0-0.3,0.3-0.5,0.6-0.6
		c2.4-0.1,4.7-1.3,6.1-3.3c1.7-2.4,2.6-5.3,2.6-8.3c0-0.3,0.2-0.6,0.6-0.6c0.3,0,0.5,0.3,0.6,0.6c-0.1,3,0.8,5.9,2.6,8.3
		c1.4,2,3.6,3.2,6.1,3.3c0.3,0,0.6,0.2,0.6,0.6s-0.2,0.6-0.6,0.6c-2.4,0.1-4.7,1.3-6.1,3.3c-1.7,2.4-2.6,5.3-2.6,8.3
		C101.2,308.7,100.9,308.9,100.6,308.9C100.6,308.9,100.6,308.9,100.6,308.9z M94.3,296.2c3,1.2,5.3,4.1,6.3,7.9
		c0.4-1.7,1.2-3.3,2.2-4.7c1-1.4,2.4-2.6,4.1-3.2c-1.6-0.7-3-1.8-4.1-3.2c-1-1.4-1.8-3-2.2-4.7c-0.4,1.7-1.2,3.3-2.2,4.7
		C97.4,294.4,96,295.6,94.3,296.2z"></path></g><g id="arrow"><polygon class="st2" points="440.5,163 419,163 419,224.9 395.2,224.9 395.2,163 373.7,163 407.1,114 	"></polygon><path class="st1" d="M419,225.5h-23.8c-0.3,0-0.6-0.2-0.6-0.6v-61.4h-20.9c-0.2,0-0.4-0.1-0.5-0.3c-0.1-0.2-0.1-0.4,0-0.6l33.4-49
		c0.2-0.3,0.6-0.3,0.8-0.1c0,0,0.1,0.1,0.1,0.1l33.4,49c0.1,0.2,0.1,0.4,0,0.6c-0.1,0.2-0.3,0.3-0.5,0.3h-20.9v61.4
		C419.6,225.2,419.3,225.5,419,225.5C419,225.5,419,225.5,419,225.5z M395.8,224.4h22.7V163c0-0.3,0.2-0.6,0.6-0.6h20.4L407.1,115
		l-32.3,47.4h20.4c0.3,0,0.6,0.2,0.6,0.6V224.4z"></path><polygon class="st0" points="197.8,171.5 181.9,171.5 181.9,217.5 164.2,217.5 164.2,171.5 148.2,171.5 173,135.1 	"></polygon><path class="st1" d="M181.9,218h-17.7c-0.3,0-0.5-0.3-0.6-0.6V172h-15.4c-0.2,0-0.4-0.1-0.5-0.3c-0.1-0.2-0.1-0.4,0-0.6l24.8-36.4
		c0.2-0.3,0.6-0.3,0.8-0.1c0,0,0.1,0.1,0.1,0.1l24.8,36.4c0.2,0.3,0.1,0.6-0.1,0.8c-0.1,0.1-0.2,0.1-0.3,0.1h-15.4v45.5
		C182.4,217.8,182.2,218,181.9,218z M164.8,216.9h16.6v-45.5c0-0.3,0.2-0.6,0.6-0.6h14.9L173.1,136l-23.7,34.9h14.9
		c0.3,0,0.6,0.2,0.6,0.6L164.8,216.9z"></path><polygon class="st2" points="288.8,83.4 272.8,83.4 272.8,129.5 255.2,129.5 255.2,83.4 239.2,83.4 264,47 	"></polygon><path class="st1" d="M272.8,130h-17.7c-0.3,0-0.6-0.2-0.6-0.6V84h-15.4c-0.2,0-0.4-0.1-0.5-0.3c-0.1-0.2-0.1-0.4,0-0.6l24.8-36.4
		c0.2-0.3,0.6-0.3,0.8-0.1c0,0,0.1,0.1,0.1,0.1l24.8,36.4c0.1,0.2,0.1,0.4,0,0.6c-0.1,0.2-0.3,0.3-0.5,0.3h-15.4v45.5
		C273.3,129.7,273.1,130,272.8,130z M255.7,128.9h16.5V83.4c0-0.3,0.2-0.6,0.6-0.6h14.9L264,48l-23.8,34.9h14.9
		c0.3,0,0.6,0.2,0.6,0.6L255.7,128.9z"></path><polygon class="st0" points="116.2,141.3 100.2,141.3 100.2,187.3 82.6,187.3 82.6,141.3 66.6,141.3 91.4,104.9 	"></polygon><path class="st1" d="M100.2,187.9H82.6c-0.3,0-0.5-0.3-0.6-0.6v-45.5H66.6c-0.2,0-0.4-0.1-0.5-0.3c-0.1-0.2-0.1-0.4,0-0.6L91,104.6
		c0.2-0.3,0.5-0.3,0.8-0.1c0,0,0.1,0.1,0.1,0.1l24.8,36.4c0.1,0.2,0.1,0.4,0,0.6c-0.1,0.2-0.3,0.3-0.5,0.3h-15.4v45.5
		C100.8,187.7,100.6,187.9,100.2,187.9C100.3,187.9,100.2,187.9,100.2,187.9z M83.1,186.8h16.6v-45.5c0-0.3,0.2-0.6,0.6-0.6h14.9
		l-23.8-34.9l-23.7,34.8h14.9c0.3,0,0.6,0.2,0.6,0.6V186.8z"></path></g></svg>